<svg width="36" height="36" viewBox="0 0 36 36" fill="none" xmlns="http://www.w3.org/2000/svg">
<circle cx="18" cy="18" r="18" fill="white"/>
<mask id="mask0_435_762" style="mask-type:alpha" maskUnits="userSpaceOnUse" x="6" y="6" width="24" height="24">
<rect x="6" y="6" width="24" height="24" fill="#D9D9D9"/>
</mask>
<g mask="url(#mask0_435_762)">
<path d="M18.0002 26.9404C17.8053 26.9404 17.6105 26.9067 17.4156 26.8394C17.2207 26.7721 17.0444 26.6679 16.8867 26.5269C15.9893 25.7 15.1496 24.8484 14.3675 23.9721C13.5855 23.0958 12.9057 22.2199 12.3281 21.3443C11.7506 20.4686 11.2935 19.6007 10.957 18.7404C10.6204 17.8801 10.4521 17.0494 10.4521 16.2481C10.4521 13.9404 11.1986 12.0722 12.6916 10.6433C14.1845 9.21445 15.954 8.50002 18.0002 8.50002C20.0463 8.50002 21.8159 9.21445 23.3088 10.6433C24.8018 12.0722 25.5482 13.9404 25.5482 16.2481C25.5482 17.0494 25.38 17.8785 25.0434 18.7356C24.7069 19.5927 24.2514 20.4606 23.6771 21.3395C23.1027 22.2183 22.4245 23.0942 21.6425 23.9673C20.8604 24.8404 20.0207 25.6904 19.1232 26.5173C18.9679 26.6583 18.7913 26.7641 18.5935 26.8346C18.3957 26.9051 18.198 26.9404 18.0002 26.9404ZM18.0019 17.8654C18.4995 17.8654 18.9249 17.6882 19.2781 17.3339C19.6313 16.9795 19.8079 16.5536 19.8079 16.056C19.8079 15.5584 19.6307 15.133 19.2764 14.7798C18.922 14.4266 18.4961 14.25 17.9985 14.25C17.5009 14.25 17.0755 14.4272 16.7223 14.7815C16.3691 15.1359 16.1925 15.5618 16.1925 16.0594C16.1925 16.557 16.3697 16.9824 16.724 17.3356C17.0784 17.6888 17.5043 17.8654 18.0019 17.8654Z" fill="#05453D"/>
</g>
</svg>
