<svg width="24" height="21" viewBox="0 0 24 21" fill="none" xmlns="http://www.w3.org/2000/svg">
<path id="engineering" d="M0 19.4555V17.9312C0 17.3623 0.148102 16.8393 0.444307 16.3623C0.740531 15.8852 1.15391 15.5134 1.68444 15.2467C2.63939 14.7608 3.70783 14.3593 4.88973 14.0423C6.07164 13.7252 7.31544 13.5667 8.62112 13.5667C9.92683 13.5667 11.1706 13.7252 12.3525 14.0423C13.5344 14.3593 14.6029 14.7608 15.5578 15.2467C16.0884 15.5134 16.5017 15.8852 16.798 16.3623C17.0942 16.8393 17.2423 17.3623 17.2423 17.9312V19.4555C17.2423 19.7533 17.1432 20.0019 16.945 20.2011C16.7467 20.4004 16.4995 20.5 16.2033 20.5H1.03894C0.742753 20.5 0.495545 20.4004 0.297316 20.2011C0.0991053 20.0019 0 19.7533 0 19.4555ZM1.72418 18.7667H15.5181V17.9312C15.5181 17.6674 15.447 17.4415 15.3047 17.2534C15.1625 17.0652 14.9831 16.9119 14.7665 16.7934C14.062 16.4319 13.1686 16.0926 12.0862 15.7756C11.0037 15.4585 9.84872 15.3 8.62112 15.3C7.39354 15.3 6.23853 15.4585 5.1561 15.7756C4.07366 16.0926 3.18023 16.4319 2.4758 16.7934C2.25916 16.9119 2.07974 17.0652 1.93752 17.2534C1.79529 17.4415 1.72418 17.6674 1.72418 17.9312V18.7667ZM8.62112 11.7C7.49671 11.7 6.54508 11.3085 5.76622 10.5256C4.98738 9.74262 4.59796 8.76373 4.59796 7.58892H4.33269C4.18237 7.58892 4.06006 7.54151 3.96574 7.4467C3.87143 7.35188 3.82427 7.22892 3.82427 7.07781C3.82427 6.9267 3.87143 6.80374 3.96574 6.70893C4.06006 6.61412 4.18237 6.56671 4.33269 6.56671H4.59796C4.6127 5.84079 4.77922 5.18487 5.09753 4.59897C5.41584 4.01304 5.86826 3.51045 6.45479 3.0912V4.18898C6.45479 4.34008 6.50195 4.46304 6.59627 4.55786C6.69058 4.65267 6.8129 4.70008 6.96321 4.70008C7.11353 4.70008 7.23584 4.65267 7.33016 4.55786C7.42447 4.46304 7.47163 4.34008 7.47163 4.18898V2.65119C7.6367 2.59341 7.81686 2.54637 8.01212 2.51006C8.20738 2.47378 8.41038 2.45564 8.62112 2.45564C8.83186 2.45564 9.03487 2.47378 9.23015 2.51006C9.42541 2.54637 9.60557 2.59341 9.77061 2.65119V4.18898C9.77061 4.34008 9.81778 4.46304 9.91211 4.55786C10.0064 4.65267 10.1287 4.70008 10.2791 4.70008C10.4294 4.70008 10.5517 4.65267 10.646 4.55786C10.7403 4.46304 10.7875 4.34008 10.7875 4.18898V3.0912C11.3814 3.51045 11.8356 4.01304 12.1503 4.59897C12.4649 5.18487 12.6296 5.84079 12.6443 6.56671H12.9096C13.0599 6.56671 13.1822 6.61412 13.2765 6.70893C13.3708 6.80374 13.418 6.9267 13.418 7.07781C13.418 7.22892 13.3708 7.35188 13.2765 7.4467C13.1822 7.54151 13.0599 7.58892 12.9096 7.58892H12.6443C12.6443 8.76373 12.2549 9.74262 11.4761 10.5256C10.6972 11.3085 9.74555 11.7 8.62112 11.7ZM8.62112 9.96671C9.26809 9.96671 9.813 9.74412 10.2558 9.29894C10.6987 8.85374 10.9201 8.30596 10.9201 7.65559H6.32214C6.32214 8.30596 6.54357 8.85374 6.98643 9.29894C7.42927 9.74412 7.97417 9.96671 8.62112 9.96671ZM17.2003 13.5156L17.1362 13.1C17.0065 13.0615 16.8761 13.0089 16.7449 12.9422C16.6138 12.8756 16.4966 12.7904 16.3935 12.6867L16.0154 12.8356C15.8961 12.8741 15.7815 12.8759 15.6717 12.8411C15.5619 12.8063 15.4724 12.7289 15.4031 12.6089L15.3213 12.4622C15.2521 12.3541 15.23 12.24 15.255 12.12C15.2801 12 15.3405 11.8993 15.4363 11.8178L15.7568 11.5578C15.7421 11.4852 15.7347 11.4163 15.7347 11.3511V10.9433C15.7347 10.8819 15.7421 10.8111 15.7568 10.7311L15.4363 10.4711C15.3405 10.3896 15.2801 10.2889 15.255 10.1689C15.23 10.0489 15.2521 9.93483 15.3213 9.82668L15.4031 9.68001C15.4724 9.56001 15.5619 9.4826 15.6717 9.44778C15.7815 9.41297 15.8961 9.41483 16.0154 9.45335L16.3935 9.60225C16.4848 9.51038 16.599 9.42815 16.7361 9.35556C16.8732 9.28298 17.0065 9.22742 17.1362 9.1889L17.2003 8.77333C17.2313 8.65335 17.2909 8.55187 17.3794 8.4689C17.4678 8.38593 17.5717 8.34445 17.6911 8.34445H17.8546C17.974 8.34445 18.0779 8.38593 18.1663 8.4689C18.2547 8.55187 18.3144 8.65335 18.3454 8.77333L18.4095 9.1889C18.5392 9.22742 18.6725 9.28298 18.8096 9.35556C18.9467 9.42815 19.0609 9.51038 19.1522 9.60225L19.5302 9.45335C19.6496 9.41483 19.7642 9.41297 19.874 9.44778C19.9838 9.4826 20.0733 9.56001 20.1426 9.68001L20.2243 9.82668C20.2936 9.93483 20.3157 10.0489 20.2907 10.1689C20.2656 10.2889 20.2052 10.3896 20.1094 10.4711L19.7889 10.7311C19.8036 10.8111 19.811 10.8819 19.811 10.9433V11.3511C19.811 11.4163 19.8036 11.4852 19.7889 11.5578L20.1094 11.8178C20.2052 11.8993 20.2656 12 20.2907 12.12C20.3157 12.24 20.2936 12.3541 20.2243 12.4622L20.1426 12.6089C20.0733 12.7289 19.9838 12.8063 19.874 12.8411C19.7642 12.8759 19.6496 12.8741 19.5302 12.8356L19.1522 12.6867C19.0491 12.7904 18.9319 12.8756 18.8008 12.9422C18.6696 13.0089 18.5392 13.0615 18.4095 13.1L18.3454 13.5156C18.3144 13.6356 18.2547 13.737 18.1663 13.82C18.0779 13.903 17.974 13.9445 17.8546 13.9445H17.6911C17.5717 13.9445 17.4678 13.903 17.3794 13.82C17.2909 13.737 17.2313 13.6356 17.2003 13.5156ZM17.7728 12.1C18.0322 12.1 18.2555 12.0059 18.4427 11.8178C18.6298 11.6297 18.7234 11.4052 18.7234 11.1445C18.7234 10.8837 18.6298 10.6593 18.4427 10.4711C18.2555 10.283 18.0322 10.1889 17.7728 10.1889C17.5135 10.1889 17.2902 10.283 17.103 10.4711C16.9159 10.6593 16.8223 10.8837 16.8223 11.1445C16.8223 11.4052 16.9159 11.6297 17.103 11.8178C17.2902 12.0059 17.5135 12.1 17.7728 12.1ZM19.8928 7.38664L19.811 6.86444C19.6165 6.81406 19.4234 6.73442 19.2318 6.62553C19.0402 6.51663 18.8796 6.38589 18.7499 6.2333L18.2128 6.43553C18.0698 6.48591 17.9287 6.4848 17.7894 6.4322C17.6502 6.3796 17.54 6.28738 17.459 6.15553L17.3418 5.95553C17.2608 5.82368 17.2328 5.68295 17.2578 5.53332C17.2829 5.3837 17.361 5.2563 17.4921 5.15112L17.9364 4.78443C17.8981 4.68074 17.8753 4.58519 17.8679 4.49777C17.8606 4.41037 17.8569 4.31482 17.8569 4.2111C17.8569 4.10739 17.8606 4.01184 17.8679 3.92444C17.8753 3.83702 17.8981 3.74147 17.9364 3.63777L17.4921 3.27109C17.361 3.16591 17.2829 3.03851 17.2578 2.88889C17.2328 2.73926 17.2608 2.59852 17.3418 2.46667L17.459 2.26667C17.54 2.13483 17.6502 2.0426 17.7894 1.99001C17.9287 1.93741 18.0698 1.9363 18.2128 1.98668L18.7499 2.18891C18.8796 2.03631 19.0402 1.90557 19.2318 1.79668C19.4234 1.68779 19.6165 1.60815 19.811 1.55777L19.8928 1.03557C19.9237 0.880015 19.9982 0.751864 20.1161 0.651119C20.2339 0.550373 20.3702 0.5 20.525 0.5H20.7239C20.8787 0.5 21.015 0.550373 21.1329 0.651119C21.2508 0.751864 21.3252 0.880015 21.3562 1.03557L21.4379 1.55777C21.6325 1.60815 21.8255 1.68779 22.0171 1.79668C22.2087 1.90557 22.3693 2.03631 22.499 2.18891L23.0362 1.98668C23.1791 1.9363 23.3202 1.93741 23.4595 1.99001C23.5988 2.0426 23.7089 2.13483 23.79 2.26667L23.9071 2.46667C23.9882 2.59852 24.0162 2.73926 23.9911 2.88889C23.9661 3.03851 23.888 3.16591 23.7568 3.27109L23.3125 3.63777C23.3508 3.74147 23.3736 3.83702 23.381 3.92444C23.3884 4.01184 23.3921 4.10739 23.3921 4.2111C23.3921 4.31482 23.3884 4.41037 23.381 4.49777C23.3736 4.58519 23.3508 4.68074 23.3125 4.78443L23.7568 5.15112C23.888 5.2563 23.9661 5.3837 23.9911 5.53332C24.0162 5.68295 23.9882 5.82368 23.9071 5.95553L23.79 6.15553C23.7089 6.28738 23.5988 6.3796 23.4595 6.4322C23.3202 6.4848 23.1791 6.48591 23.0362 6.43553L22.499 6.2333C22.3693 6.38589 22.2087 6.51663 22.0171 6.62553C21.8255 6.73442 21.6325 6.81406 21.4379 6.86444L21.3562 7.38664C21.3252 7.54219 21.2508 7.67034 21.1329 7.77109C21.015 7.87183 20.8787 7.92221 20.7239 7.92221H20.525C20.3702 7.92221 20.2339 7.87183 20.1161 7.77109C19.9982 7.67034 19.9237 7.54219 19.8928 7.38664ZM20.6245 5.72223C21.0489 5.72223 21.4055 5.57704 21.6944 5.28667C21.9832 4.9963 22.1276 4.63777 22.1276 4.2111C22.1276 3.78443 21.9832 3.42591 21.6944 3.13554C21.4055 2.84517 21.0489 2.69998 20.6245 2.69998C20.2 2.69998 19.8434 2.84517 19.5546 3.13554C19.2657 3.42591 19.1213 3.78443 19.1213 4.2111C19.1213 4.63777 19.2657 4.9963 19.5546 5.28667C19.8434 5.57704 20.2 5.72223 20.6245 5.72223Z" fill="#149474"/>
</svg>
