<svg width="24" height="24" viewBox="0 0 24 24" fill="none" xmlns="http://www.w3.org/2000/svg">
<g id="nature">
<mask id="mask0_260_35" style="mask-type:alpha" maskUnits="userSpaceOnUse" x="0" y="0" width="24" height="24">
<rect id="Bounding box" width="24" height="24" fill="#D9D9D9"/>
</mask>
<g mask="url(#mask0_260_35)">
<path id="nature_2" d="M11 20V16H9C7.61667 16 6.4375 15.5125 5.4625 14.5375C4.4875 13.5625 4 12.3833 4 11C4 10 4.275 9.07917 4.825 8.2375C5.375 7.39583 6.11667 6.78333 7.05 6.4C7.2 5.15 7.74583 4.10417 8.6875 3.2625C9.62917 2.42083 10.7333 2 12 2C13.2667 2 14.3708 2.42083 15.3125 3.2625C16.2542 4.10417 16.8 5.15 16.95 6.4C17.8833 6.78333 18.625 7.39583 19.175 8.2375C19.725 9.07917 20 10 20 11C20 12.3833 19.5125 13.5625 18.5375 14.5375C17.5625 15.5125 16.3833 16 15 16H13V20H18C18.2833 20 18.5208 20.0958 18.7125 20.2875C18.9042 20.4792 19 20.7167 19 21C19 21.2833 18.9042 21.5208 18.7125 21.7125C18.5208 21.9042 18.2833 22 18 22H6C5.71667 22 5.47917 21.9042 5.2875 21.7125C5.09583 21.5208 5 21.2833 5 21C5 20.7167 5.09583 20.4792 5.2875 20.2875C5.47917 20.0958 5.71667 20 6 20H11Z" fill="#149474"/>
</g>
</g>
</svg>
