<svg width="24" height="31" viewBox="0 0 24 31" fill="none" xmlns="http://www.w3.org/2000/svg">
<path id="location_on" d="M12 28.9982C15.1783 26.2027 17.6911 23.3596 19.5382 20.4688C21.3854 17.578 22.3089 15.0777 22.3089 12.9679C22.3089 9.84166 21.3295 7.26142 19.3707 5.22725C17.4119 3.19307 14.955 2.17599 12 2.17599C9.04499 2.17599 6.58808 3.19307 4.62927 5.22725C2.67046 7.26142 1.69106 9.84166 1.69106 12.9679C1.69106 15.0777 2.61463 17.578 4.46177 20.4688C6.30894 23.3596 8.82168 26.2027 12 28.9982ZM12 30.5C11.7355 30.5 11.471 30.4562 11.2065 30.3685C10.942 30.2809 10.6981 30.1385 10.4748 29.9413C9.27155 28.824 8.05203 27.5796 6.81623 26.2082C5.58046 24.8367 4.45797 23.4165 3.44874 21.9476C2.43955 20.4786 1.61245 18.979 0.967454 17.4487C0.322484 15.9184 0 14.4248 0 12.9679C0 9.3531 1.16477 6.37139 3.49432 4.02282C5.82383 1.67427 8.65906 0.5 12 0.5C15.3409 0.5 18.1762 1.67427 20.5057 4.02282C22.8352 6.37139 24 9.3531 24 12.9679C24 14.4248 23.6775 15.913 23.0325 17.4323C22.3875 18.9516 21.5659 20.4512 20.5675 21.9312C19.5691 23.411 18.452 24.8312 17.2163 26.1918C15.9805 27.5523 14.761 28.7912 13.5577 29.9085C13.3422 30.1057 13.0973 30.2535 12.823 30.3521C12.5486 30.4507 12.2743 30.5 12 30.5ZM12.0057 15.4195C12.7586 15.4195 13.4011 15.1486 13.9333 14.6069C14.4656 14.0652 14.7317 13.4139 14.7317 12.6532C14.7317 11.8925 14.4637 11.2432 13.9276 10.7054C13.3915 10.1675 12.7471 9.89862 11.9943 9.89862C11.2414 9.89862 10.5989 10.1695 10.0667 10.7112C9.53442 11.2529 9.26831 11.9041 9.26831 12.6649C9.26831 13.4256 9.53634 14.0749 10.0724 14.6127C10.6085 15.1506 11.2529 15.4195 12.0057 15.4195Z" fill="#149474"/>
</svg>
