<svg width="20" height="20" viewBox="0 0 20 20" fill="none" xmlns="http://www.w3.org/2000/svg">
<g id="location_on">
<mask id="mask0_269_106" style="mask-type:alpha" maskUnits="userSpaceOnUse" x="0" y="0" width="20" height="20">
<rect id="Bounding box" width="20" height="20" fill="#D9D9D9"/>
</mask>
<g mask="url(#mask0_269_106)">
<path id="location_on_2" d="M9.9994 16.3974C11.5656 15.0342 12.8039 13.6477 13.7141 12.238C14.6244 10.8283 15.0795 9.60897 15.0795 8.58013C15.0795 7.05556 14.5969 5.79728 13.6316 4.80529C12.6663 3.81331 11.4556 3.31731 9.9994 3.31731C8.5432 3.31731 7.33247 3.81331 6.36719 4.80529C5.40191 5.79728 4.91927 7.05556 4.91927 8.58013C4.91927 9.60897 5.3744 10.8283 6.28465 12.238C7.19491 13.6477 8.43316 15.0342 9.9994 16.3974ZM9.9994 17.1298C9.86905 17.1298 9.73871 17.1084 9.60837 17.0657C9.47803 17.023 9.35783 16.9535 9.24779 16.8574C8.65485 16.3125 8.05388 15.7057 7.4449 15.0369C6.83592 14.368 6.28277 13.6755 5.78544 12.9591C5.28812 12.2428 4.88053 11.5115 4.56269 10.7652C4.24485 10.019 4.08594 9.2906 4.08594 8.58013C4.08594 6.81731 4.65992 5.36324 5.8079 4.21794C6.95585 3.07265 8.35302 2.5 9.9994 2.5C11.6458 2.5 13.0429 3.07265 14.1909 4.21794C15.3389 5.36324 15.9129 6.81731 15.9129 8.58013C15.9129 9.2906 15.7539 10.0163 15.4361 10.7572C15.1183 11.4981 14.7133 12.2294 14.2214 12.9511C13.7294 13.6728 13.1789 14.3654 12.5699 15.0289C11.9609 15.6923 11.36 16.2965 10.767 16.8414C10.6608 16.9375 10.5401 17.0096 10.4049 17.0577C10.2698 17.1058 10.1346 17.1298 9.9994 17.1298ZM10.0022 9.77565C10.3732 9.77565 10.6898 9.64356 10.9521 9.37938C11.2144 9.1152 11.3455 8.79762 11.3455 8.42665C11.3455 8.05567 11.2135 7.73905 10.9493 7.47677C10.6851 7.21448 10.3675 7.08333 9.99656 7.08333C9.62559 7.08333 9.30896 7.21542 9.04667 7.4796C8.78439 7.74377 8.65325 8.06135 8.65325 8.43233C8.65325 8.80331 8.78533 9.11993 9.0495 9.38221C9.31368 9.6445 9.63126 9.77565 10.0022 9.77565Z" fill="#89BE69"/>
</g>
</g>
</svg>
