<svg width="19" height="22" viewBox="0 0 19 22" fill="none" xmlns="http://www.w3.org/2000/svg">
<path d="M8.49998 3.34613C8.71664 3.34613 8.89581 3.27529 9.03748 3.13363C9.17914 2.99196 9.24998 2.81279 9.24998 2.59613C9.24998 2.37946 9.17914 2.20029 9.03748 2.05863C8.89581 1.91696 8.71664 1.84613 8.49998 1.84613C8.28331 1.84613 8.10414 1.91696 7.96248 2.05863C7.82081 2.20029 7.74998 2.37946 7.74998 2.59613C7.74998 2.81279 7.82081 2.99196 7.96248 3.13363C8.10414 3.27529 8.28331 3.34613 8.49998 3.34613ZM14.5 21.5576C13.2513 21.5576 12.1891 21.1198 11.3135 20.2442C10.4378 19.3685 10 18.3064 10 17.0577C10 15.809 10.4378 14.7468 11.3135 13.8712C12.1891 12.9955 13.2513 12.5577 14.5 12.5577C15.7487 12.5577 16.8109 12.9955 17.6865 13.8712C18.5621 14.7468 19 15.809 19 17.0577C19 18.3064 18.5621 19.3685 17.6865 20.2442C16.8109 21.1198 15.7487 21.5576 14.5 21.5576ZM14.0577 20H14.9423V17.5H17.4423V16.6154H14.9423V14.1154H14.0577V16.6154H11.5577V17.5H14.0577V20ZM3.75 7.86535H13.25V6.36538H3.75V7.86535ZM8.09805 19.5H1.8077C1.31058 19.5 0.885025 19.3229 0.531025 18.9689C0.177008 18.6149 0 18.1894 0 17.6923V4.3077C0 3.81058 0.177008 3.38503 0.531025 3.03103C0.885025 2.67701 1.31058 2.5 1.8077 2.5H6.2577C6.32052 1.94488 6.56282 1.47278 6.9846 1.08368C7.4064 0.694559 7.91313 0.5 8.50478 0.5C9.09644 0.5 9.60317 0.694559 10.025 1.08368C10.4468 1.47278 10.6859 1.94488 10.7423 2.5H15.1923C15.6894 2.5 16.1149 2.67701 16.4689 3.03103C16.8229 3.38503 17 3.81058 17 4.3077V10.6327C16.5935 10.4634 16.1846 10.3349 15.773 10.2471C15.3615 10.1593 14.9371 10.1154 14.5 10.1154C14.2397 10.1154 13.9903 10.1308 13.7519 10.1615C13.5134 10.1923 13.2756 10.2404 13.0384 10.3058V10.25H3.75V11.75H10.1058C9.70321 12.0653 9.34583 12.4234 9.03365 12.824C8.72147 13.2247 8.45768 13.6615 8.2423 14.1346H3.75V15.6346H7.7673C7.71473 15.8589 7.67627 16.0823 7.6519 16.3048C7.62755 16.5272 7.61538 16.7589 7.61538 17C7.61538 17.4282 7.64935 17.8525 7.7173 18.273C7.78523 18.6935 7.91215 19.1025 8.09805 19.5Z" fill="#149474"/>
</svg>
