<svg width="22" height="25" viewBox="0 0 22 25" fill="none" xmlns="http://www.w3.org/2000/svg">
<path id="calendar_today" d="M2.33938 25C1.68568 25 1.13236 24.7711 0.679414 24.3134C0.226471 23.8556 0 23.2964 0 22.6358V5.1308C0 4.47016 0.226471 3.91096 0.679414 3.45322C1.13236 2.99547 1.68568 2.7666 2.33938 2.7666H4.13126V1.006C4.13126 0.719297 4.22624 0.479949 4.41622 0.287956C4.60618 0.0959856 4.84301 0 5.12673 0C5.41042 0 5.64725 0.0959856 5.83723 0.287956C6.02719 0.479949 6.12216 0.719297 6.12216 1.006V2.7666H15.9276V0.980856C15.9276 0.702524 16.0205 0.469464 16.2063 0.281678C16.3921 0.0938925 16.6227 0 16.8982 0C17.1736 0 17.4042 0.0938925 17.59 0.281678C17.7758 0.469464 17.8687 0.702524 17.8687 0.980856V2.7666H19.6606C20.3143 2.7666 20.8676 2.99547 21.3206 3.45322C21.7735 3.91096 22 4.47016 22 5.1308V22.6358C22 23.2964 21.7735 23.8556 21.3206 24.3134C20.8676 24.7711 20.3143 25 19.6606 25H2.33938ZM2.33938 23.0383H19.6606C19.7602 23.0383 19.8514 22.9963 19.9344 22.9125C20.0174 22.8287 20.0588 22.7364 20.0588 22.6358V10.3622H1.94115V22.6358C1.94115 22.7364 1.98263 22.8287 2.06558 22.9125C2.14855 22.9963 2.23982 23.0383 2.33938 23.0383Z" fill="#149474"/>
</svg>
