<svg width="25" height="31" viewBox="0 0 25 31" fill="none" xmlns="http://www.w3.org/2000/svg">
<path id="nature" d="M10.9375 27.9V21.7H7.8125C5.65104 21.7 3.80859 20.9444 2.28516 19.4331C0.761719 17.9219 0 16.0942 0 13.95C0 12.4 0.429687 10.9727 1.28906 9.66813C2.14844 8.36354 3.30729 7.41417 4.76562 6.82C5 4.8825 5.85286 3.26146 7.32422 1.95687C8.79557 0.652292 10.5208 0 12.5 0C14.4792 0 16.2044 0.652292 17.6758 1.95687C19.1471 3.26146 20 4.8825 20.2344 6.82C21.6927 7.41417 22.8516 8.36354 23.7109 9.66813C24.5703 10.9727 25 12.4 25 13.95C25 16.0942 24.2383 17.9219 22.7148 19.4331C21.1914 20.9444 19.349 21.7 17.1875 21.7H14.0625V27.9H21.875C22.3177 27.9 22.6888 28.0485 22.9883 28.3456C23.2878 28.6427 23.4375 29.0108 23.4375 29.45C23.4375 29.8892 23.2878 30.2573 22.9883 30.5544C22.6888 30.8515 22.3177 31 21.875 31H3.125C2.68229 31 2.3112 30.8515 2.01172 30.5544C1.71224 30.2573 1.5625 29.8892 1.5625 29.45C1.5625 29.0108 1.71224 28.6427 2.01172 28.3456C2.3112 28.0485 2.68229 27.9 3.125 27.9H10.9375Z" fill="#149474"/>
</svg>
